<svg width="501" height="109" viewBox="0 0 501 109" fill="none" xmlns="http://www.w3.org/2000/svg">
<path d="M125.919 1.43854V23.6362H101.644V1.43854H93.7326V108.59H101.644V84.0252H125.919V108.59H133.75V1.43854H125.919ZM125.919 77.2121H101.644V30.4493H125.919V77.2121Z" fill="white"/>
<path d="M165.636 1.43854L147.578 55.0145H155.72L159.891 42.5371H181.048L185.219 55.0145H193.361L175.232 1.43854H165.626H165.636ZM167.401 19.0408L170.479 8.59132L173.628 19.0408L178.972 35.8838H161.996L167.411 19.0408H167.401Z" fill="white"/>
<path d="M165.636 55.0145L147.578 108.59H155.72L159.891 96.113H181.048L185.219 108.59H193.361L175.232 55.0145H165.626H165.636ZM167.401 72.6167L170.479 62.1673L173.628 72.6167L178.972 89.4597H161.996L167.411 72.6167H167.401Z" fill="white"/>
<path d="M215.11 1.43854H207.198V108.59H215.11V1.43854Z" fill="white"/>
<path d="M37.8821 48.2014H0V55.0145H14.9904V108.59H22.9017V55.0145H37.8821V48.2014Z" fill="white"/>
<path d="M78.0705 1.43854H40.1984V8.24168H55.1788V61.8176H63.0901V8.24168H78.0705V1.43854Z" fill="white"/>
<path d="M22.9017 1.43854H14.9903V39.6899H22.9017V1.43854Z" fill="white"/>
<path d="M63.09 70.339H55.1787V108.59H63.09V70.339Z" fill="white"/>
<path d="M265.465 15.854H275.763V12.0279H265.465V5.25469H276.896V1.43854H260.893V26.9128H265.465V15.854Z" fill="white"/>
<path d="M280.115 26.9128H284.426V17.6622C284.426 15.894 284.848 14.4854 285.71 13.4364C286.562 12.3975 287.705 11.868 289.139 11.868H290.383V7.64228H289.47C288.056 7.64228 286.883 8.03188 285.94 8.82109C285.148 9.49041 284.587 10.3895 284.236 11.5084C284.236 11.1487 284.216 10.7392 284.186 10.2796C284.146 9.78012 284.106 9.28063 284.055 8.77115C284.035 8.53139 284.005 8.2217 283.985 7.86206H279.854L279.894 8.55137C280.045 10.2996 280.115 11.928 280.115 13.4265V26.9128Z" fill="white"/>
<path d="M309.113 22.6771C309.855 21.1886 310.226 19.4304 310.226 17.4124C310.226 15.3945 309.855 13.6462 309.113 12.1477C308.371 10.6592 307.318 9.51039 305.954 8.7112C304.591 7.912 302.996 7.51241 301.171 7.51241C299.347 7.51241 297.672 7.912 296.308 8.7112C294.945 9.51039 293.902 10.6592 293.17 12.1477C292.438 13.6362 292.077 15.3945 292.077 17.4124C292.077 19.4304 292.438 21.1786 293.17 22.6771C293.902 24.1656 294.945 25.3144 296.308 26.1136C297.672 26.9128 299.296 27.3124 301.171 27.3124C303.047 27.3124 304.591 26.9128 305.954 26.1136C307.318 25.3144 308.371 24.1656 309.113 22.6771ZM305.232 20.779C304.851 21.7381 304.32 22.4773 303.628 22.9968C302.936 23.5163 302.114 23.776 301.161 23.776C300.209 23.776 299.357 23.5163 298.655 22.9968C297.953 22.4773 297.421 21.7381 297.05 20.779C296.669 19.82 296.489 18.7011 296.489 17.4124C296.489 16.1237 296.679 14.9449 297.05 14.0059C297.431 13.0768 297.963 12.3475 298.655 11.8181C299.347 11.2986 300.179 11.0388 301.161 11.0388C302.144 11.0388 302.936 11.2886 303.628 11.8081C304.32 12.3176 304.861 13.0468 305.232 13.9959C305.603 14.9449 305.804 16.0838 305.804 17.4124C305.804 18.7411 305.613 19.82 305.232 20.779Z" fill="white"/>
<path d="M314.026 13.4464V26.9128H318.338V16.3535C318.338 15.3345 318.498 14.4454 318.829 13.6762C319.16 12.907 319.631 12.3076 320.233 11.878C320.844 11.4385 321.556 11.2187 322.389 11.2187C323.361 11.2187 324.143 11.5084 324.725 12.0878C325.306 12.6672 325.597 13.4464 325.597 14.4154V26.9028H329.949V16.3435C329.949 15.3245 330.109 14.4354 330.44 13.6662C330.771 12.897 331.232 12.2976 331.844 11.868C332.456 11.4285 333.178 11.2087 334.04 11.2087C335.013 11.2087 335.785 11.4984 336.346 12.0678C336.908 12.6372 337.188 13.4165 337.188 14.4154V26.9028H341.54V14.1257C341.54 12.7871 341.279 11.6283 340.758 10.6293C340.237 9.63028 339.495 8.87105 338.542 8.33159C337.59 7.80212 336.497 7.53239 335.253 7.53239C333.669 7.53239 332.315 7.97195 331.182 8.84107C330.4 9.44046 329.799 10.2097 329.347 11.1088C329.006 10.2097 328.485 9.44046 327.753 8.84107C326.69 7.97195 325.367 7.53239 323.792 7.53239C322.358 7.53239 321.095 7.90202 320.032 8.64127C319.19 9.22069 318.558 9.9999 318.137 10.9489C318.137 10.7092 318.137 10.4894 318.107 10.2397C318.067 9.74017 318.027 9.24067 317.977 8.73118C317.957 8.46145 317.927 8.17175 317.906 7.86206H313.775L313.815 8.48143C313.966 10.1797 314.036 11.828 314.036 13.4364L314.026 13.4464Z" fill="white"/>
<path d="M365.114 23.4563H362.406C361.745 23.4563 361.233 23.2765 360.872 22.9268C360.511 22.5772 360.321 22.0577 360.321 21.3784V11.2986H364.923V7.88205H360.321V2.74723L356.049 3.58638V7.88205H352.941V11.2986H355.939V21.9279C355.939 23.5063 356.4 24.735 357.313 25.6042C358.225 26.4733 359.519 26.9128 361.203 26.9128H365.114V23.4563Z" fill="white"/>
<path d="M373.256 16.4734C373.256 15.4044 373.436 14.4854 373.807 13.7261C374.178 12.9669 374.68 12.3575 375.321 11.928C375.963 11.4884 376.705 11.2686 377.527 11.2686C378.57 11.2686 379.402 11.5583 380.014 12.1477C380.626 12.7371 380.926 13.5164 380.926 14.5154V26.9328H385.278V14.1557C385.278 12.1677 384.707 10.5693 383.563 9.37053C382.42 8.17174 380.896 7.57235 378.991 7.57235C377.477 7.57235 376.164 7.95197 375.04 8.70121C374.278 9.2107 373.697 9.86004 373.246 10.6193V0H368.934V26.9428H373.246V16.4933L373.256 16.4734Z" fill="white"/>
<path d="M393.17 26.0637C394.513 26.9028 396.077 27.3224 397.882 27.3224C399.998 27.3224 401.793 26.763 403.257 25.6341C404.721 24.5053 405.623 23.0068 405.964 21.1387H401.652C401.502 21.9379 401.091 22.5872 400.389 23.0867C399.697 23.5862 398.865 23.8359 397.882 23.8359C396.9 23.8359 396.117 23.5762 395.436 23.0567C394.754 22.5372 394.232 21.778 393.861 20.799C393.571 20.0198 393.4 19.1407 393.34 18.1617H406.134V16.4534C406.134 14.6552 405.784 13.0868 405.092 11.7382C404.4 10.3895 403.417 9.35055 402.154 8.62129C400.89 7.89203 399.396 7.53239 397.692 7.53239C395.987 7.53239 394.393 7.93198 393.069 8.7112C391.746 9.5004 390.723 10.6393 390.021 12.1178C389.309 13.5963 388.958 15.3445 388.958 17.3625C388.958 19.3804 389.319 21.0687 390.051 22.5672C390.783 24.0757 391.816 25.2445 393.159 26.0837L393.17 26.0637ZM395.345 11.5583C396.017 11.0688 396.809 10.8291 397.742 10.8291C398.674 10.8291 399.426 11.0588 400.078 11.5184C400.74 11.9779 401.211 12.6572 401.522 13.5563C401.692 14.0658 401.793 14.6252 401.823 15.2346H393.44C393.52 14.6752 393.651 14.1457 393.831 13.6662C394.172 12.7471 394.674 12.0378 395.345 11.5583Z" fill="white"/>
<path d="M418.097 26.9128H422.408V17.6622C422.408 15.894 422.829 14.4854 423.692 13.4364C424.544 12.3975 425.687 11.868 427.121 11.868H428.364V7.64228H427.452C426.038 7.64228 424.865 8.03188 423.922 8.82109C423.13 9.49041 422.569 10.3895 422.218 11.5084C422.218 11.1487 422.198 10.7392 422.168 10.2796C422.127 9.78012 422.087 9.28063 422.037 8.77115C422.017 8.53139 421.987 8.2217 421.967 7.86206H417.836L417.876 8.55137C418.026 10.2996 418.097 11.928 418.097 13.4265V26.9128Z" fill="white"/>
<path d="M443.926 8.7112C442.563 7.912 440.968 7.51241 439.143 7.51241C437.319 7.51241 435.644 7.912 434.28 8.7112C432.917 9.51039 431.874 10.6592 431.142 12.1477C430.41 13.6362 430.049 15.3945 430.049 17.4124C430.049 19.4304 430.41 21.1786 431.142 22.6771C431.874 24.1656 432.917 25.3144 434.28 26.1136C435.644 26.9128 437.268 27.3124 439.143 27.3124C441.018 27.3124 442.563 26.9128 443.926 26.1136C445.29 25.3144 446.343 24.1656 447.085 22.6771C447.827 21.1886 448.198 19.4304 448.198 17.4124C448.198 15.3945 447.827 13.6462 447.085 12.1477C446.343 10.6592 445.29 9.51039 443.926 8.7112ZM443.214 20.779C442.833 21.7381 442.302 22.4773 441.61 22.9968C440.918 23.5163 440.096 23.776 439.143 23.776C438.191 23.776 437.339 23.5163 436.637 22.9968C435.935 22.4773 435.403 21.7381 435.032 20.779C434.651 19.82 434.471 18.7011 434.471 17.4124C434.471 16.1237 434.661 14.9449 435.032 14.0059C435.413 13.0768 435.945 12.3475 436.637 11.8181C437.329 11.2986 438.161 11.0388 439.143 11.0388C440.126 11.0388 440.918 11.2886 441.61 11.8081C442.302 12.3176 442.843 13.0468 443.214 13.9959C443.585 14.9449 443.786 16.0838 443.786 17.4124C443.786 18.7411 443.595 19.82 443.214 20.779Z" fill="white"/>
<path d="M464.792 8.7112C463.429 7.912 461.834 7.51241 460.009 7.51241C458.185 7.51241 456.51 7.912 455.146 8.7112C453.783 9.51039 452.74 10.6592 452.008 12.1477C451.276 13.6362 450.915 15.3945 450.915 17.4124C450.915 19.4304 451.276 21.1786 452.008 22.6771C452.74 24.1656 453.783 25.3144 455.146 26.1136C456.51 26.9128 458.134 27.3124 460.009 27.3124C461.884 27.3124 463.429 26.9128 464.792 26.1136C466.156 25.3144 467.209 24.1656 467.951 22.6771C468.693 21.1886 469.064 19.4304 469.064 17.4124C469.064 15.3945 468.693 13.6462 467.951 12.1477C467.209 10.6592 466.156 9.51039 464.792 8.7112ZM464.08 20.779C463.699 21.7381 463.168 22.4773 462.476 22.9968C461.784 23.5163 460.962 23.776 460.009 23.776C459.057 23.776 458.205 23.5163 457.503 22.9968C456.801 22.4773 456.269 21.7381 455.898 20.779C455.517 19.82 455.337 18.7011 455.337 17.4124C455.337 16.1237 455.527 14.9449 455.898 14.0059C456.279 13.0768 456.811 12.3475 457.503 11.8181C458.195 11.2986 459.027 11.0388 460.009 11.0388C460.992 11.0388 461.784 11.2886 462.476 11.8081C463.168 12.3176 463.709 13.0468 464.08 13.9959C464.461 14.9449 464.652 16.0838 464.652 17.4124C464.652 18.7411 464.461 19.82 464.08 20.779Z" fill="white"/>
<path d="M478.82 22.9268C478.459 22.5772 478.269 22.0577 478.269 21.3784V11.2986H482.871V7.88205H478.269V2.74723L473.997 3.58638V7.88205H470.889V11.2986H473.887V21.9279C473.887 23.5063 474.348 24.735 475.261 25.6042C476.173 26.4733 477.467 26.9128 479.151 26.9128H483.062V23.4563H480.354C479.693 23.4563 479.181 23.2765 478.82 22.9268Z" fill="white"/>
<path d="M500.178 18.1017C499.626 17.3225 498.844 16.7231 497.841 16.3036C496.829 15.884 495.545 15.5343 493.991 15.2646C493.089 15.1447 492.387 14.9949 491.875 14.8051C491.364 14.6252 490.973 14.3955 490.702 14.1158C490.431 13.836 490.301 13.4564 490.301 12.9669C490.301 12.2676 490.582 11.7182 491.143 11.3286C491.705 10.939 492.427 10.7491 493.299 10.7491C494.172 10.7491 494.944 10.9489 495.525 11.3485C496.107 11.7481 496.498 12.3276 496.698 13.0768L500.569 12.1977C500.208 10.7192 499.386 9.56035 498.122 8.74118C496.859 7.91202 495.224 7.50242 493.229 7.50242C491.083 7.50242 489.349 8.00193 488.025 8.99093C486.701 9.98992 486.03 11.4085 486.03 13.2466C486.03 14.3855 486.3 15.3245 486.832 16.0538C487.363 16.7831 488.115 17.3625 489.058 17.782C490.01 18.2116 491.234 18.5513 492.748 18.821C493.7 18.9709 494.462 19.1507 495.034 19.3704C495.605 19.5902 496.037 19.86 496.327 20.1896C496.618 20.5193 496.769 20.9389 496.769 21.4484C496.769 22.2476 496.448 22.8769 495.816 23.3265C495.184 23.776 494.392 23.9958 493.44 23.9958C492.397 23.9958 491.534 23.756 490.863 23.2665C490.191 22.777 489.81 22.1277 489.71 21.2985H485.578C485.729 23.1467 486.511 24.6052 487.935 25.6841C489.359 26.763 491.214 27.3024 493.51 27.3024C495.806 27.3024 497.531 26.763 498.914 25.6841C500.298 24.6052 501 23.0667 501 21.0787C501 19.87 500.729 18.8709 500.178 18.0917V18.1017Z" fill="white"/>
<path d="M264.984 66.5728C266.669 67.6317 268.654 68.1512 270.94 68.1512C273.226 68.1512 275.131 67.6217 276.786 66.5728C278.44 65.5139 279.724 64.0054 280.636 62.0274C281.549 60.0494 282.01 57.7118 282.01 55.0145C282.01 52.3172 281.549 49.9496 280.636 47.9916C279.724 46.0335 278.44 44.5151 276.786 43.4562C275.131 42.3972 273.176 41.8777 270.94 41.8777C268.704 41.8777 266.669 42.4072 264.984 43.4562C263.299 44.5151 262.016 46.0336 261.114 48.0116C260.211 49.9896 259.76 52.3272 259.76 55.0145C259.76 57.7018 260.211 60.0794 261.114 62.0374C262.016 63.9954 263.31 65.5139 264.984 66.5728ZM265.245 50.1194C265.776 48.7208 266.528 47.6619 267.491 46.9127C268.453 46.1734 269.596 45.8038 270.91 45.8038C272.224 45.8038 273.337 46.1634 274.329 46.8927C275.312 47.622 276.074 48.6809 276.595 50.0595C277.117 51.4381 277.377 53.0964 277.377 55.0145C277.377 56.9326 277.117 58.5509 276.595 59.9295C276.074 61.3081 275.312 62.377 274.329 63.1163C273.347 63.8556 272.203 64.2252 270.91 64.2252C269.616 64.2252 268.453 63.8556 267.491 63.1163C266.528 62.377 265.776 61.3081 265.245 59.9095C264.713 58.511 264.443 56.8826 264.443 55.0145C264.443 53.1464 264.713 51.518 265.245 50.1194Z" fill="white"/>
<path d="M288.908 42.9766C287.996 43.8657 287.535 45.1544 287.535 46.8527V48.7108H284.537V52.1274H287.535V67.7416H291.917V52.1274H296.338V48.7108H291.806V47.1824C291.806 46.4531 291.987 45.8937 292.338 45.5041C292.689 45.1145 293.22 44.9247 293.922 44.9247H296.338V41.648H292.869C291.134 41.648 289.821 42.0875 288.908 42.9766Z" fill="white"/>
<path d="M323.422 67.7516H328.164L333.358 48.7108H328.856L326.45 58.7607L325.537 63.0564L324.625 58.8306L321.988 48.7108H317.867L315.189 58.8306L314.237 62.9864L313.364 58.7607L310.988 48.7108H306.466L311.65 67.7516H316.363L319.03 57.492L319.902 53.8956L320.714 57.492L323.422 67.7516Z" fill="white"/>
<path d="M341.059 42.0176H336.677V46.2034H341.059V42.0176Z" fill="white"/>
<path d="M341.059 48.7108H336.677V67.7516H341.059V48.7108Z" fill="white"/>
<path d="M357.012 57.1423C355.999 56.7227 354.716 56.3731 353.162 56.1034C352.259 55.9835 351.557 55.8336 351.046 55.6438C350.535 55.464 350.144 55.2342 349.873 54.9545C349.602 54.6748 349.472 54.2952 349.472 53.8057C349.472 53.1064 349.752 52.557 350.314 52.1674C350.876 51.7778 351.597 51.5879 352.47 51.5879C353.342 51.5879 354.114 51.7877 354.696 52.1873C355.277 52.5869 355.668 53.1664 355.869 53.9156L359.739 53.0365C359.378 51.558 358.556 50.3992 357.293 49.58C356.029 48.7508 354.395 48.3412 352.4 48.3412C350.254 48.3412 348.519 48.8407 347.196 49.8297C345.872 50.8287 345.2 52.2473 345.2 54.0854C345.2 55.2243 345.471 56.1633 346.002 56.8926C346.534 57.6218 347.286 58.2013 348.228 58.6208C349.181 59.0504 350.404 59.3901 351.918 59.6598C352.871 59.8097 353.633 59.9895 354.204 60.2092C354.776 60.429 355.207 60.6987 355.498 61.0284C355.789 61.3581 355.939 61.7777 355.939 62.2872C355.939 63.0863 355.618 63.7157 354.987 64.1652C354.355 64.6148 353.563 64.8346 352.61 64.8346C351.567 64.8346 350.705 64.5948 350.033 64.1053C349.361 63.6158 348.98 62.9664 348.88 62.1373H344.749C344.899 63.9854 345.681 65.444 347.105 66.5229C348.529 67.6018 350.384 68.1412 352.68 68.1412C354.977 68.1412 356.701 67.6018 358.085 66.5229C359.469 65.444 360.171 63.9055 360.171 61.9175C360.171 60.7087 359.9 59.7097 359.348 58.9305C358.797 58.1513 358.015 57.5519 357.012 57.1324V57.1423Z" fill="white"/>
<path d="M374.248 66.9724C375.081 66.383 375.732 65.6438 376.204 64.7447C376.214 65.0144 376.234 65.3041 376.254 65.6238C376.304 66.3131 376.364 67.0224 376.434 67.7516H380.565C380.495 66.8725 380.435 65.9335 380.405 64.9345C380.365 63.9255 380.355 62.9864 380.355 62.1173V40.8188H375.973V51.0485C375.612 50.3992 375.111 49.8397 374.459 49.3902C373.446 48.7009 372.223 48.3512 370.789 48.3512C369.185 48.3512 367.771 48.7608 366.568 49.57C365.364 50.3792 364.422 51.538 363.75 53.0465C363.078 54.555 362.747 56.2832 362.747 58.2512C362.747 60.2192 363.068 61.9775 363.72 63.456C364.362 64.9345 365.254 66.0933 366.387 66.9125C367.52 67.7316 368.854 68.1512 370.388 68.1512C371.922 68.1512 373.145 67.7616 374.258 66.9724H374.248ZM367.701 61.6178C367.36 60.6588 367.189 59.5399 367.189 58.2512C367.189 56.9625 367.37 55.8037 367.721 54.8447C368.072 53.8856 368.583 53.1564 369.235 52.6569C369.897 52.1574 370.669 51.9076 371.571 51.9076C372.955 51.9076 374.038 52.4771 374.82 53.6059C375.602 54.7348 375.993 56.2832 375.993 58.2512C375.993 59.5399 375.813 60.6588 375.442 61.6178C375.081 62.5769 374.559 63.3161 373.908 63.8356C373.246 64.3551 372.474 64.6148 371.571 64.6148C370.669 64.6148 369.887 64.3551 369.215 63.8356C368.543 63.3161 368.042 62.5769 367.701 61.6178Z" fill="white"/>
<path d="M398.033 66.9524C399.396 66.1532 400.449 65.0044 401.191 63.5159C401.933 62.0274 402.304 60.2692 402.304 58.2512C402.304 56.2333 401.933 54.485 401.191 52.9865C400.449 51.498 399.396 50.3492 398.033 49.55C396.669 48.7508 395.075 48.3512 393.25 48.3512C391.425 48.3512 389.75 48.7508 388.387 49.55C387.023 50.3492 385.98 51.498 385.248 52.9865C384.516 54.475 384.155 56.2333 384.155 58.2512C384.155 60.2692 384.516 62.0174 385.248 63.5159C385.98 65.0044 387.023 66.1532 388.387 66.9524C389.75 67.7516 391.375 68.1512 393.25 68.1512C395.125 68.1512 396.669 67.7516 398.033 66.9524ZM389.129 61.6178C388.748 60.6588 388.567 59.5399 388.567 58.2512C388.567 56.9625 388.758 55.7837 389.129 54.8447C389.51 53.9156 390.041 53.1863 390.733 52.6569C391.425 52.1374 392.257 51.8776 393.24 51.8776C394.222 51.8776 395.014 52.1274 395.706 52.6469C396.398 53.1563 396.94 53.8856 397.311 54.8347C397.682 55.7837 397.882 56.9226 397.882 58.2512C397.882 59.5799 397.692 60.6588 397.311 61.6178C396.93 62.5769 396.398 63.3161 395.706 63.8356C395.014 64.3551 394.192 64.6148 393.24 64.6148C392.287 64.6148 391.435 64.3551 390.733 63.8356C390.031 63.3161 389.5 62.5769 389.129 61.6178Z" fill="white"/>
<path d="M405.884 49.3302C406.034 51.0285 406.104 52.6768 406.104 54.2852V67.7516H410.416V57.1923C410.416 56.1733 410.576 55.2842 410.907 54.515C411.238 53.7458 411.709 53.1464 412.311 52.7168C412.923 52.2772 413.635 52.0575 414.467 52.0575C415.439 52.0575 416.222 52.3472 416.803 52.9266C417.385 53.506 417.675 54.2852 417.675 55.2542V67.7416H422.027V57.1823C422.027 56.1633 422.188 55.2742 422.518 54.505C422.849 53.7358 423.311 53.1364 423.922 52.7068C424.534 52.2672 425.256 52.0475 426.118 52.0475C427.091 52.0475 427.863 52.3372 428.424 52.9066C428.986 53.476 429.267 54.2552 429.267 55.2542V67.7416H433.618V54.9645C433.618 53.6259 433.358 52.467 432.836 51.4681C432.315 50.4691 431.573 49.7098 430.62 49.1704C429.668 48.6409 428.575 48.3712 427.332 48.3712C425.747 48.3712 424.394 48.8107 423.261 49.6798C422.478 50.2792 421.877 51.0485 421.426 51.9476C421.085 51.0485 420.563 50.2792 419.831 49.6798C418.768 48.8107 417.445 48.3712 415.871 48.3712C414.437 48.3712 413.173 48.7408 412.11 49.4801C411.268 50.0595 410.637 50.8387 410.215 51.7877C410.215 51.548 410.215 51.3282 410.185 51.0785C410.145 50.579 410.105 50.0795 410.055 49.57C410.035 49.3002 410.005 49.0105 409.985 48.7009H405.854L405.894 49.3202L405.884 49.3302Z" fill="white"/>
<path d="M277.628 83.1061H259.218V86.9323H266.157V108.59H270.729V86.9323H277.628V83.1061Z" fill="white"/>
<path d="M290.754 90.3888C289.39 89.5896 287.796 89.19 285.971 89.19C284.146 89.19 282.471 89.5896 281.108 90.3888C279.744 91.188 278.701 92.3368 277.969 93.8253C277.237 95.3138 276.876 97.0721 276.876 99.09C276.876 101.108 277.237 102.856 277.969 104.355C278.701 105.843 279.744 106.992 281.108 107.791C282.471 108.59 284.096 108.99 285.971 108.99C287.846 108.99 289.39 108.59 290.754 107.791C292.117 106.992 293.17 105.843 293.912 104.355C294.654 102.866 295.025 101.108 295.025 99.09C295.025 97.0721 294.654 95.3238 293.912 93.8253C293.17 92.3368 292.117 91.188 290.754 90.3888ZM290.042 102.457C289.661 103.416 289.129 104.155 288.437 104.674C287.745 105.194 286.923 105.454 285.971 105.454C285.018 105.454 284.166 105.194 283.464 104.674C282.762 104.155 282.231 103.416 281.86 102.457C281.479 101.498 281.298 100.379 281.298 99.09C281.298 97.8013 281.489 96.6225 281.86 95.6834C282.241 94.7544 282.772 94.0251 283.464 93.4957C284.156 92.9762 284.988 92.7164 285.971 92.7164C286.953 92.7164 287.745 92.9662 288.437 93.4856C289.129 93.9951 289.671 94.7244 290.042 95.6734C290.413 96.6225 290.613 97.7614 290.613 99.09C290.613 100.419 290.423 101.498 290.042 102.457Z" fill="white"/>
<path d="M313.364 104.604C313.003 104.255 312.813 103.735 312.813 103.056V92.9762H317.415V89.5596H312.813V84.4248L308.541 85.264V89.5596H305.433V92.9762H308.431V103.605C308.431 105.184 308.892 106.413 309.805 107.282C310.717 108.151 312.011 108.59 313.695 108.59H317.606V105.134H314.899C314.237 105.134 313.725 104.954 313.364 104.604Z" fill="white"/>
<path d="M331.493 89.22C329.979 89.22 328.666 89.5996 327.543 90.3488C326.781 90.8583 326.199 91.5076 325.748 92.2669V81.6476H321.436V108.59H325.748V98.141C325.748 97.072 325.928 96.153 326.299 95.3937C326.67 94.6345 327.172 94.0251 327.813 93.5956C328.455 93.156 329.197 92.9362 330.019 92.9362C331.062 92.9362 331.894 93.2259 332.506 93.8153C333.118 94.4047 333.418 95.184 333.418 96.1829V108.6H337.77V95.8233C337.77 93.8353 337.199 92.2369 336.056 91.0381C334.912 89.8393 333.388 89.2399 331.483 89.2399L331.493 89.22Z" fill="white"/>
<path d="M354.656 90.2789C353.392 89.5496 351.898 89.19 350.194 89.19C348.489 89.19 346.895 89.5896 345.571 90.3688C344.248 91.158 343.225 92.2969 342.523 93.7754C341.811 95.2539 341.46 97.0021 341.46 99.0201C341.46 101.038 341.821 102.726 342.553 104.225C343.285 105.733 344.318 106.902 345.661 107.741C347.005 108.58 348.569 109 350.374 109C352.49 109 354.285 108.441 355.749 107.312C357.213 106.183 358.115 104.684 358.456 102.816H354.144C353.994 103.615 353.583 104.265 352.881 104.764C352.189 105.264 351.357 105.514 350.374 105.514C349.391 105.514 348.609 105.254 347.928 104.734C347.246 104.215 346.724 103.456 346.353 102.477C346.062 101.697 345.892 100.818 345.832 99.8393H358.626V98.131C358.626 96.3328 358.275 94.7644 357.584 93.4157C356.892 92.0671 355.909 91.0281 354.646 90.2989L354.656 90.2789ZM347.847 93.2259C348.519 92.7364 349.311 92.4967 350.244 92.4967C351.176 92.4967 351.928 92.7264 352.58 93.186C353.242 93.6455 353.713 94.3248 354.024 95.2239C354.194 95.7334 354.295 96.2928 354.325 96.9022H345.942C346.022 96.3428 346.153 95.8133 346.333 95.3338C346.674 94.4147 347.175 93.7055 347.847 93.2259Z" fill="white"/>
<path d="M380.636 89.22C379.122 89.22 377.808 89.5996 376.685 90.3488C375.803 90.9382 375.141 91.7074 374.69 92.6365C374.69 92.3967 374.69 92.167 374.66 91.9073C374.62 91.4178 374.579 90.9083 374.529 90.3788C374.509 90.159 374.479 89.8793 374.459 89.5397H370.328C370.498 91.3578 370.579 93.2159 370.579 95.114V108.58H374.89V98.131C374.89 97.062 375.071 96.143 375.442 95.3837C375.813 94.6245 376.314 94.0151 376.956 93.5856C377.598 93.146 378.34 92.9262 379.162 92.9262C380.205 92.9262 381.037 93.2159 381.648 93.8053C382.26 94.3947 382.561 95.174 382.561 96.1729V108.59H386.913V95.8133C386.913 93.8253 386.341 92.2269 385.198 91.0281C384.055 89.8294 382.531 89.23 380.626 89.23L380.636 89.22Z" fill="white"/>
<path d="M403.808 90.2789C402.545 89.5496 401.051 89.19 399.346 89.19C397.642 89.19 396.047 89.5896 394.724 90.3688C393.4 91.158 392.377 92.2969 391.675 93.7754C390.964 95.2539 390.613 97.0021 390.613 99.0201C390.613 101.038 390.974 102.726 391.706 104.225C392.438 105.733 393.47 106.902 394.814 107.741C396.158 108.58 397.722 109 399.527 109C401.642 109 403.437 108.441 404.901 107.312C406.365 106.183 407.267 104.684 407.608 102.816H403.297C403.146 103.615 402.735 104.265 402.033 104.764C401.341 105.264 400.509 105.514 399.527 105.514C398.544 105.514 397.762 105.254 397.08 104.734C396.398 104.215 395.877 103.456 395.506 102.477C395.215 101.697 395.045 100.818 394.984 99.8393H407.779V98.131C407.779 96.3328 407.428 94.7644 406.736 93.4157C406.044 92.0671 405.062 91.0281 403.798 90.2989L403.808 90.2789ZM396.99 93.2259C397.662 92.7364 398.454 92.4967 399.386 92.4967C400.319 92.4967 401.071 92.7264 401.723 93.186C402.384 93.6455 402.856 94.3248 403.166 95.2239C403.337 95.7334 403.437 96.2928 403.467 96.9022H395.085C395.165 96.3428 395.295 95.8133 395.476 95.3338C395.817 94.4147 396.318 93.7055 396.99 93.2259Z" fill="white"/>
<path d="M429.678 99.5995L428.755 103.885L427.843 99.6694L425.216 89.5496H421.085L418.418 99.6694L417.465 103.825L416.593 99.5995L414.216 89.5496H409.684L414.878 108.59H419.591L422.258 98.3208L423.13 94.7344L423.942 98.3208L426.64 108.59H431.392L436.576 89.5496H432.084L429.678 99.5995Z" fill="white"/>
</svg>
