<svg width="252" height="145" viewBox="0 0 252 145" fill="none" xmlns="http://www.w3.org/2000/svg">
<path d="M9.97452 128.864H6.30573V133.295H9.97452V128.864Z" fill="white"/>
<path d="M4.47134 135.114H0V138.75H4.47134V135.114Z" fill="white"/>
<path d="M20.7516 135.114H11.8089V138.75H20.7516V135.114Z" fill="white"/>
<path d="M9.97452 140.568H6.30573V145H9.97452V140.568Z" fill="white"/>
<path d="M36.9745 135.114H28.0318V138.75H36.9745V135.114Z" fill="white"/>
<path d="M26.2548 140.568H22.586V145H26.2548V140.568Z" fill="white"/>
<path d="M48.7834 135.114H44.3121V138.75H48.7834V135.114Z" fill="white"/>
<path d="M42.4777 140.568H38.8089V145H42.4777V140.568Z" fill="white"/>
<path d="M20.7516 119.034H16.2803V122.67H20.7516V119.034Z" fill="white"/>
<path d="M36.9745 119.034H28.0318V122.67H36.9745V119.034Z" fill="white"/>
<path d="M26.2548 124.432H22.586V133.295H26.2548V124.432Z" fill="white"/>
<path d="M53.2548 119.034H44.3121V122.67H53.2548V119.034Z" fill="white"/>
<path d="M42.4777 124.432H38.8089V133.295H42.4777V124.432Z" fill="white"/>
<path d="M69.4777 119.034H60.535V122.67H69.4777V119.034Z" fill="white"/>
<path d="M58.758 124.432H55.0892V128.864H58.758V124.432Z" fill="white"/>
<path d="M81.2866 119.034H76.8153V122.67H81.2866V119.034Z" fill="white"/>
<path d="M74.9809 124.432H71.3121V128.864H74.9809V124.432Z" fill="white"/>
<path d="M81.2866 102.898H76.8153V106.534H81.2866V102.898Z" fill="white"/>
<path d="M74.9809 108.352H71.3121V117.216H74.9809V108.352Z" fill="white"/>
<path d="M69.4777 102.898H60.535V106.534H69.4777V102.898Z" fill="white"/>
<path d="M58.758 108.352H55.0892V117.216H58.758V108.352Z" fill="white"/>
<path d="M53.2548 102.898H44.3121V106.534H53.2548V102.898Z" fill="white"/>
<path d="M42.4777 108.352H38.8089V117.216H42.4777V108.352Z" fill="white"/>
<path d="M36.9745 102.898H28.0318V106.534H36.9745V102.898Z" fill="white"/>
<path d="M26.2548 108.352H22.586V117.216H26.2548V108.352Z" fill="white"/>
<path d="M4.47134 102.898H0V106.534H4.47134V102.898Z" fill="white"/>
<path d="M20.7516 102.898H11.8089V106.534H20.7516V102.898Z" fill="white"/>
<path d="M9.97452 108.352H6.30573V112.784H9.97452V108.352Z" fill="white"/>
<path d="M9.97452 80.5682H6.30573V85H9.97452V80.5682Z" fill="white"/>
<path d="M4.47134 86.8182H0V90.4546H4.47134V86.8182Z" fill="white"/>
<path d="M20.7516 86.8182H11.8089V90.4546H20.7516V86.8182Z" fill="white"/>
<path d="M9.97452 92.2159H6.30573V101.08H9.97452V92.2159Z" fill="white"/>
<path d="M26.2548 80.5682H22.586V85H26.2548V80.5682Z" fill="white"/>
<path d="M36.9745 86.8182H28.0318V90.4546H36.9745V86.8182Z" fill="white"/>
<path d="M26.2548 92.2159H22.586V101.08H26.2548V92.2159Z" fill="white"/>
<path d="M53.2548 86.8182H44.3121V90.4546H53.2548V86.8182Z" fill="white"/>
<path d="M42.4777 92.2159H38.8089V101.08H42.4777V92.2159Z" fill="white"/>
<path d="M69.4777 86.8182H60.535V90.4546H69.4777V86.8182Z" fill="white"/>
<path d="M58.758 92.2159H55.0892V101.08H58.758V92.2159Z" fill="white"/>
<path d="M81.2866 86.8182H76.8153V90.4546H81.2866V86.8182Z" fill="white"/>
<path d="M74.9809 92.2159H71.3121V101.08H74.9809V92.2159Z" fill="white"/>
<path d="M42.4777 64.4318H38.8089V68.8636H42.4777V64.4318Z" fill="white"/>
<path d="M36.9745 70.6818H32.5032V74.3182H36.9745V70.6818Z" fill="white"/>
<path d="M53.2548 70.6818H44.3121V74.3182H53.2548V70.6818Z" fill="white"/>
<path d="M42.4777 76.1364H38.8089V85H42.4777V76.1364Z" fill="white"/>
<path d="M69.4777 70.6818H60.535V74.3182H69.4777V70.6818Z" fill="white"/>
<path d="M58.758 76.1364H55.0892V85H58.758V76.1364Z" fill="white"/>
<path d="M85.7579 70.6818H76.8153V74.3182H85.7579V70.6818Z" fill="white"/>
<path d="M74.9809 76.1364H71.3121V85H74.9809V76.1364Z" fill="white"/>
<path d="M97.5095 70.6818H93.0382V74.3182H97.5095V70.6818Z" fill="white"/>
<path d="M91.2611 76.1364H87.5923V80.5682H91.2611V76.1364Z" fill="white"/>
<path d="M91.2611 48.3523H87.5923V52.7841H91.2611V48.3523Z" fill="white"/>
<path d="M97.5095 54.6023H93.0382V58.2386H97.5095V54.6023Z" fill="white"/>
<path d="M91.2611 60H87.5923V68.8636H91.2611V60Z" fill="white"/>
<path d="M74.9809 48.3523H71.3121V52.7841H74.9809V48.3523Z" fill="white"/>
<path d="M85.7579 54.6023H76.8153V58.2386H85.7579V54.6023Z" fill="white"/>
<path d="M74.9809 60H71.3121V68.8636H74.9809V60Z" fill="white"/>
<path d="M53.2548 54.6023H48.7834V58.2386H53.2548V54.6023Z" fill="white"/>
<path d="M69.4777 54.6023H60.535V58.2386H69.4777V54.6023Z" fill="white"/>
<path d="M58.758 60H55.0892V68.8636H58.758V60Z" fill="white"/>
<path d="M65.0064 38.4659H60.535V42.1023H65.0064V38.4659Z" fill="white"/>
<path d="M58.758 43.9205H55.0892V52.7841H58.758V43.9205Z" fill="white"/>
<path d="M36.9745 38.4659H32.5032V42.1023H36.9745V38.4659Z" fill="white"/>
<path d="M53.2548 38.4659H44.3121V42.1023H53.2548V38.4659Z" fill="white"/>
<path d="M42.4777 43.9205H38.8089V48.3523H42.4777V43.9205Z" fill="white"/>
<path d="M42.4777 16.1364H38.8089V20.5682H42.4777V16.1364Z" fill="white"/>
<path d="M36.9745 22.3864H32.5032V26.0227H36.9745V22.3864Z" fill="white"/>
<path d="M53.2548 22.3864H44.3121V26.0227H53.2548V22.3864Z" fill="white"/>
<path d="M42.4777 27.7841H38.8089V36.6477H42.4777V27.7841Z" fill="white"/>
<path d="M65.0064 22.3864H60.535V26.0227H65.0064V22.3864Z" fill="white"/>
<path d="M58.758 27.7841H55.0892V36.6477H58.758V27.7841Z" fill="white"/>
<path d="M58.758 0H55.0892V4.43182H58.758V0Z" fill="white"/>
<path d="M53.2548 6.25H48.7834V9.88637H53.2548V6.25Z" fill="white"/>
<path d="M65.0064 6.25H60.535V9.88637H65.0064V6.25Z" fill="white"/>
<path d="M58.758 11.7045H55.0892V20.5682H58.758V11.7045Z" fill="white"/>
<path d="M126.573 109.205C127.318 108.864 127.949 108.409 128.408 107.841C129.153 106.932 129.554 105.852 129.554 104.602C129.554 103.466 129.268 102.5 128.694 101.648C128.121 100.795 127.318 100.114 126.229 99.6591C125.14 99.2046 123.879 98.9773 122.446 98.9773H112.414V120.852H122.904C124.452 120.852 125.828 120.625 126.975 120.114C128.121 119.602 128.981 118.864 129.611 117.955C130.242 117.045 130.529 115.909 130.529 114.659C130.529 113.125 130.07 111.818 129.153 110.852C128.465 110.057 127.605 109.545 126.573 109.205ZM116.427 102.159H122.159C123.191 102.159 124.051 102.443 124.624 102.955C125.255 103.466 125.541 104.205 125.541 105.057C125.541 106.023 125.255 106.761 124.624 107.273C123.994 107.784 123.191 108.068 122.159 108.068H116.427V102.159ZM125.369 116.705C124.682 117.273 123.764 117.557 122.561 117.557H116.427V111.023H122.503C123.707 111.023 124.624 111.307 125.369 111.875C126.057 112.443 126.401 113.239 126.401 114.261C126.401 115.341 126.057 116.136 125.369 116.705Z" fill="white"/>
<path d="M149.79 104.489H145.834V113.295C145.834 114.261 145.662 115.057 145.318 115.739C144.975 116.42 144.516 116.932 143.885 117.33C143.255 117.67 142.51 117.898 141.65 117.898C140.561 117.898 139.701 117.614 139.07 117.045C138.439 116.477 138.096 115.682 138.096 114.659V104.545H134.197V115C134.197 116.25 134.427 117.33 134.943 118.295C135.459 119.261 136.204 120 137.121 120.511C138.038 121.023 139.127 121.25 140.331 121.25C141.764 121.25 142.968 120.909 144 120.227C144.803 119.716 145.433 119.034 145.892 118.182C145.892 118.58 145.949 119.091 146.006 119.773C146.064 120.057 146.064 120.455 146.121 120.852H149.79C149.675 118.977 149.618 117.33 149.618 115.966V104.489H149.79Z" fill="white"/>
<path d="M160.166 105.227C159.42 105.795 158.904 106.534 158.561 107.443C158.561 107.216 158.561 106.932 158.503 106.591C158.446 106.136 158.446 105.739 158.389 105.284C158.389 105.057 158.331 104.773 158.274 104.489H154.605L154.662 105.114C154.777 106.705 154.834 108.125 154.834 109.318V120.795H158.732V113.068C158.732 111.477 159.134 110.227 159.936 109.318C160.739 108.409 161.828 107.955 163.147 107.955H164.58V104.261H163.49C162.115 104.261 160.968 104.602 160.166 105.227Z" fill="white"/>
<path d="M172.032 98.8636H168.019V102.5H172.032V98.8636Z" fill="white"/>
<path d="M171.975 104.489H168.076V120.852H171.975V104.489Z" fill="white"/>
<path d="M182.408 105.227C181.662 105.795 181.146 106.534 180.803 107.443C180.803 107.216 180.803 106.932 180.745 106.591C180.688 106.136 180.688 105.739 180.631 105.284C180.631 105.057 180.573 104.773 180.516 104.489H176.847L176.904 105.114C177.019 106.705 177.076 108.125 177.076 109.318V120.795H180.975V113.068C180.975 111.477 181.376 110.227 182.178 109.318C182.981 108.409 184.07 107.955 185.389 107.955H186.822V104.261H185.732C184.357 104.261 183.268 104.602 182.408 105.227Z" fill="white"/>
<path d="M203.904 109.489C203.904 108.409 203.618 107.443 203.045 106.648C202.471 105.852 201.669 105.227 200.58 104.83C199.49 104.375 198.229 104.148 196.854 104.148C195.019 104.148 193.471 104.489 192.153 105.227C190.834 105.966 189.975 106.989 189.516 108.239L193.127 109.034C193.414 108.466 193.873 108.011 194.503 107.67C195.134 107.33 195.879 107.159 196.739 107.159C197.771 107.159 198.573 107.33 199.146 107.727C199.72 108.125 200.006 108.636 200.006 109.261C200.006 109.716 199.892 110.057 199.605 110.284C199.318 110.511 198.917 110.682 198.401 110.739C197.828 110.795 197.025 110.909 195.879 110.966C193.529 111.08 191.752 111.534 190.49 112.273C189.229 113.011 188.656 114.261 188.656 115.966C188.656 117.557 189.172 118.807 190.261 119.773C191.35 120.682 192.726 121.136 194.446 121.136C196.108 121.136 197.541 120.739 198.688 119.943C199.318 119.489 199.892 118.92 200.293 118.295C200.293 118.352 200.293 118.352 200.293 118.409C200.35 118.864 200.408 119.261 200.408 119.773C200.408 120.114 200.465 120.455 200.58 120.795H204.248C204.019 119.091 203.847 117.443 203.847 115.909V109.489H203.904ZM200.006 114.489C200.006 115.284 199.834 115.909 199.433 116.477C199.032 117.045 198.516 117.5 197.885 117.784C197.255 118.068 196.51 118.182 195.65 118.182C194.675 118.182 193.93 118.011 193.357 117.614C192.783 117.216 192.497 116.648 192.497 115.852C192.497 115.114 192.783 114.545 193.414 114.205C194.045 113.864 194.904 113.636 196.108 113.636C197.255 113.58 198.057 113.523 198.631 113.352C199.204 113.182 199.605 113.011 199.949 112.67V114.489H200.006Z" fill="white"/>
<path d="M232.28 104.886C231.363 104.375 230.274 104.148 229.013 104.148C227.58 104.148 226.318 104.545 225.229 105.284C224.427 105.852 223.796 106.591 223.338 107.5C222.994 106.591 222.42 105.852 221.675 105.284C220.701 104.545 219.439 104.148 217.892 104.148C216.516 104.148 215.312 104.489 214.28 105.114C213.478 105.625 212.847 106.307 212.389 107.102C212.389 106.932 212.389 106.761 212.331 106.591C212.274 106.193 212.274 105.739 212.217 105.227C212.217 105 212.159 104.716 212.102 104.489H208.433L208.49 105.114C208.605 106.705 208.662 108.125 208.662 109.375V120.852H212.561V111.989C212.561 111.08 212.732 110.284 213.076 109.602C213.42 108.92 213.879 108.409 214.452 108.011C215.083 107.614 215.771 107.443 216.631 107.443C217.662 107.443 218.465 107.727 219.096 108.295C219.669 108.864 220.013 109.602 220.013 110.568V120.909H223.911V112.045C223.911 111.136 224.083 110.341 224.427 109.659C224.771 108.977 225.229 108.466 225.86 108.068C226.49 107.67 227.236 107.5 228.038 107.5C229.07 107.5 229.873 107.784 230.446 108.352C231.019 108.92 231.306 109.659 231.306 110.625V120.966H235.204V110.398C235.204 109.148 234.917 108.068 234.401 107.159C234 106.08 233.255 105.398 232.28 104.886Z" fill="white"/>
<path d="M125.771 84.3182C124.739 85.0568 123.478 85.3977 121.93 85.3977C120.611 85.3977 119.408 85.1136 118.318 84.4318C117.287 83.8068 116.484 82.8977 115.911 81.7614C115.338 80.5682 115.051 79.2046 115.051 77.6705C115.051 76.1364 115.338 74.7159 115.911 73.5796C116.484 72.3864 117.287 71.5341 118.318 70.8523C119.35 70.2273 120.554 69.8864 121.873 69.8864C123.306 69.8864 124.567 70.2273 125.599 70.9091C126.631 71.5909 127.318 72.5568 127.777 73.75L131.618 72.5568C130.987 70.625 129.841 69.0909 128.121 67.9546C126.401 66.875 124.338 66.3068 121.93 66.3068C119.752 66.3068 117.803 66.7614 116.14 67.6705C114.478 68.5796 113.217 69.9432 112.299 71.6477C111.382 73.3523 110.981 75.3409 110.981 77.6136C110.981 79.8864 111.439 81.875 112.357 83.5796C113.274 85.2841 114.535 86.5909 116.197 87.5568C117.86 88.5227 119.809 88.9773 121.987 88.9773C123.707 88.9773 125.312 88.6932 126.688 88.0114C128.121 87.3864 129.268 86.5341 130.127 85.3977C131.045 84.2614 131.618 82.9545 131.847 81.4205H127.72C127.433 82.6136 126.803 83.5796 125.771 84.3182Z" fill="white"/>
<path d="M147.497 72.9546C146.178 72.2727 144.631 71.9318 142.911 71.9318C141.191 71.9318 139.643 72.2727 138.325 72.9546C137.006 73.6364 136.032 74.6591 135.287 75.9091C134.541 77.2159 134.197 78.6932 134.197 80.3977C134.197 82.1023 134.541 83.5796 135.287 84.8864C136.032 86.1932 137.006 87.1591 138.325 87.8977C139.643 88.5796 141.134 88.9773 142.911 88.9773C144.631 88.9773 146.178 88.6364 147.497 87.8977C148.815 87.2159 149.847 86.1932 150.535 84.8864C151.223 83.5796 151.567 82.1023 151.567 80.3977C151.567 78.6932 151.223 77.1591 150.535 75.9091C149.847 74.6591 148.815 73.6932 147.497 72.9546ZM147.096 83.2386C146.694 84.0341 146.178 84.6591 145.433 85.1136C144.745 85.5682 143.885 85.7955 142.911 85.7955C141.936 85.7955 141.134 85.5682 140.446 85.1136C139.758 84.6591 139.185 84.0341 138.783 83.2386C138.382 82.4432 138.21 81.4773 138.21 80.3977C138.21 79.3182 138.382 78.3523 138.783 77.5568C139.185 76.7614 139.701 76.1364 140.446 75.6818C141.134 75.2273 141.994 75 142.911 75C143.885 75 144.745 75.2273 145.433 75.6818C146.121 76.1364 146.694 76.7614 147.096 77.5568C147.497 78.3523 147.669 79.3182 147.669 80.3977C147.669 81.5341 147.497 82.4432 147.096 83.2386Z" fill="white"/>
<path d="M159.478 65.4546H155.58V88.5796H159.478V65.4546Z" fill="white"/>
<path d="M179.713 84.9432C180.401 83.6364 180.745 82.1591 180.745 80.4546C180.745 78.75 180.401 77.2159 179.713 75.9659C179.025 74.6591 177.994 73.6932 176.675 73.0114C175.357 72.3296 173.809 71.9886 172.089 71.9886C170.369 71.9886 168.822 72.3296 167.503 73.0114C166.185 73.6932 165.21 74.7159 164.465 75.9659C163.72 77.2727 163.376 78.75 163.376 80.4546C163.376 82.1591 163.72 83.6364 164.465 84.9432C165.21 86.25 166.185 87.2159 167.503 87.9545C168.822 88.6364 170.312 89.0341 172.089 89.0341C173.809 89.0341 175.357 88.6932 176.675 87.9545C177.994 87.2159 178.968 86.1932 179.713 84.9432ZM176.217 83.2386C175.815 84.0341 175.299 84.6591 174.554 85.1136C173.866 85.5682 173.006 85.7955 172.032 85.7955C171.057 85.7955 170.255 85.5682 169.567 85.1136C168.879 84.6591 168.306 84.0341 167.904 83.2386C167.503 82.4432 167.331 81.4773 167.331 80.3977C167.331 79.3182 167.503 78.3523 167.904 77.5568C168.306 76.7614 168.822 76.1364 169.567 75.6818C170.255 75.2273 171.115 75 172.032 75C173.006 75 173.866 75.2273 174.554 75.6818C175.242 76.1364 175.815 76.7614 176.217 77.5568C176.618 78.3523 176.79 79.3182 176.79 80.3977C176.79 81.5341 176.618 82.4432 176.217 83.2386Z" fill="white"/>
<path d="M193.013 75.7386H194.446V72.0455H193.357C192.038 72.0455 190.892 72.3864 190.089 73.0114C189.344 73.5796 188.828 74.3182 188.484 75.2273C188.484 75 188.484 74.7159 188.427 74.375C188.369 73.9205 188.369 73.5227 188.312 73.0682C188.312 72.8409 188.255 72.5568 188.197 72.2727H184.529L184.586 72.8977C184.701 74.4886 184.758 75.9091 184.758 77.1023V88.5796H188.656V80.8523C188.656 79.2614 189.057 78.0114 189.86 77.1023C190.548 76.1932 191.637 75.7386 193.013 75.7386Z" fill="white"/>
<path d="M206.599 85.4546C205.968 85.8523 205.166 86.0227 204.191 86.0227C203.159 86.0227 202.299 85.8523 201.611 85.4546C200.924 85.0568 200.522 84.5455 200.408 83.8636H196.682C196.854 85.4546 197.656 86.7046 199.032 87.6137C200.408 88.5227 202.185 88.9773 204.306 88.9773C206.427 88.9773 208.146 88.5227 209.465 87.5568C210.783 86.5909 211.471 85.2273 211.471 83.4659C211.471 82.3864 211.185 81.4773 210.669 80.8523C210.153 80.2273 209.408 79.7159 208.433 79.4318C207.459 79.1477 206.255 78.8636 204.707 78.6364C203.847 78.5227 203.159 78.4091 202.643 78.2386C202.185 78.125 201.783 77.9546 201.439 77.6705C201.153 77.4432 200.981 77.1023 200.981 76.7046C200.981 76.0796 201.268 75.625 201.841 75.2841C202.414 74.9432 203.159 74.7727 204.019 74.7727C204.936 74.7727 205.682 74.9432 206.312 75.2841C206.943 75.625 207.344 76.1364 207.573 76.7614L211.013 75.9091C210.611 74.6591 209.752 73.6364 208.548 72.9546C207.344 72.2727 205.796 71.9318 203.962 71.9318C201.898 71.9318 200.293 72.3864 199.032 73.2386C197.771 74.1477 197.14 75.3977 197.14 77.0455C197.14 78.0682 197.369 78.9205 197.885 79.5455C198.401 80.1705 199.089 80.625 200.006 80.9091C200.924 81.1932 202.07 81.4773 203.503 81.7045C204.478 81.875 205.223 81.9886 205.796 82.1591C206.369 82.3296 206.771 82.5 207.115 82.7841C207.401 83.0682 207.573 83.4091 207.573 83.8636C207.516 84.5455 207.229 85.0568 206.599 85.4546Z" fill="white"/>
<path d="M234.975 72.9546C233.656 72.2727 232.108 71.9318 230.389 71.9318C228.669 71.9318 227.121 72.2727 225.803 72.9546C224.484 73.6364 223.51 74.6591 222.764 75.9091C222.019 77.2159 221.675 78.6932 221.675 80.3977C221.675 82.1023 222.019 83.5796 222.764 84.8864C223.51 86.1932 224.484 87.1591 225.803 87.8977C227.121 88.5796 228.611 88.9773 230.389 88.9773C232.108 88.9773 233.656 88.6364 234.975 87.8977C236.293 87.2159 237.325 86.1932 238.013 84.8864C238.701 83.5796 239.045 82.1023 239.045 80.3977C239.045 78.6932 238.701 77.1591 238.013 75.9091C237.325 74.6591 236.293 73.6932 234.975 72.9546ZM234.516 83.2386C234.115 84.0341 233.599 84.6591 232.854 85.1136C232.166 85.5682 231.306 85.7955 230.331 85.7955C229.357 85.7955 228.554 85.5682 227.866 85.1136C227.178 84.6591 226.605 84.0341 226.204 83.2386C225.803 82.4432 225.631 81.4773 225.631 80.3977C225.631 79.3182 225.803 78.3523 226.204 77.5568C226.605 76.7614 227.121 76.1364 227.866 75.6818C228.554 75.2273 229.414 75 230.331 75C231.306 75 232.166 75.2273 232.854 75.6818C233.541 76.1364 234.115 76.7614 234.516 77.5568C234.917 78.3523 235.089 79.3182 235.089 80.3977C235.147 81.5341 234.917 82.4432 234.516 83.2386Z" fill="white"/>
<path d="M248.045 69.6591C248.389 69.3182 248.847 69.1477 249.535 69.1477H251.943V66.25H248.732C247.07 66.25 245.866 66.6477 245.064 67.3864C244.261 68.1818 243.86 69.3182 243.86 70.9091V72.2727H241.051V75.3409H243.86V88.6364H247.758V75.3409H252V72.2727H247.643V71.1932C247.529 70.5114 247.701 70 248.045 69.6591Z" fill="white"/>
</svg>
