<svg width="77" height="39" viewBox="0 0 77 39" fill="none" xmlns="http://www.w3.org/2000/svg">
<path d="M45.0736 0V7.9753H36.384V0H33.5521V38.4982H36.384V29.6723H45.0736V38.4982H47.8768V0H45.0736ZM45.0736 27.2244H36.384V10.4232H45.0736V27.2244Z" fill="#E73E16"/>
<path d="M59.2907 0L52.8264 19.2491H55.7409L57.234 14.7661H64.8073L66.3005 19.2491H69.2149L62.7256 0H59.2871H59.2907ZM59.9224 6.32425L61.0243 2.5699L62.1513 6.32425L64.0644 12.3757H57.9878L59.926 6.32425H59.9224Z" fill="#E73E16"/>
<path d="M59.2907 19.2491L52.8264 38.4982H55.7409L57.234 34.0152H64.8073L66.3005 38.4982H69.2149L62.7256 19.2491H59.2871H59.2907ZM59.9224 25.5733L61.0243 21.819L62.1513 25.5733L64.0644 31.6248H57.9878L59.926 25.5733H59.9224Z" fill="#E73E16"/>
<path d="M76.9999 0H74.168V38.4982H76.9999V0Z" fill="#E73E16"/>
<path d="M13.5602 16.8012H0V19.2491H5.36591V38.4982H8.19783V19.2491H13.5602V16.8012Z" fill="#E73E16"/>
<path d="M27.9457 0H14.3891V2.44428H19.7515V21.6934H22.5834V2.44428H27.9457V0Z" fill="#E73E16"/>
<path d="M8.19764 0H5.36573V13.7432H8.19764V0Z" fill="#E73E16"/>
<path d="M22.5837 24.755H19.7518V38.4982H22.5837V24.755Z" fill="#E73E16"/>
</svg>
